<svg xmlns="http://www.w3.org/2000/svg" width="128" height="128" viewBox="0 0 128 128">
  <circle cx="64" cy="64" r="51" fill="#fff7e6" stroke="#102421" stroke-width="8"/>
  <path d="M64 13 C44 31 41 54 54 75 C65 94 86 103 110 97 C94 120 60 123 35 106 C10 89 5 55 22 30 C33 16 47 11 64 13 Z" fill="#ff5f57"/>
  <path d="M65 13 C89 26 99 47 91 70 C85 90 69 103 44 110 C71 124 103 112 116 84 C130 53 107 17 65 13 Z" fill="#4fb7ff"/>
  <path d="M21 32 C43 37 58 48 64 64 C49 68 33 78 21 97 C4 77 4 52 21 32 Z" fill="#ffe26a"/>
  <circle cx="64" cy="64" r="12" fill="#fff7e6" stroke="#102421" stroke-width="5"/>
</svg>
